<svg width="800px" height="800px" viewBox="0 0 48 48" version="1" xmlns="http://www.w3.org/2000/svg" enable-background="new 0 0 48 48">
    <symbol id="like">
        <path fill="current" stroke="current" d="M34,9c-4.2,0-7.9,2.1-10,5.4C21.9,11.1,18.2,9,14,9C7.4,9,2,14.4,2,21c0,11.9,22,24,22,24s22-12,22-24 C46,14.4,40.6,9,34,9z"/>
    </symbol>
    <symbol id="editPen">
        <rect id="view-box" width="24" height="24" fill="none"/>
        <path id="Shape" stroke="current" d="M.75,17.5A.751.751,0,0,1,0,16.75V12.569a.755.755,0,0,1,.22-.53L11.461.8a2.72,2.72,0,0,1,3.848,0L16.7,2.191a2.72,2.72,0,0,1,0,3.848L5.462,17.28a.747.747,0,0,1-.531.22ZM1.5,12.879V16h3.12l7.91-7.91L9.41,4.97ZM13.591,7.03l2.051-2.051a1.223,1.223,0,0,0,0-1.727L14.249,1.858a1.222,1.222,0,0,0-1.727,0L10.47,3.91Z" transform="translate(3.25 3.25)" fill="#141124"/>
    </symbol>
</svg>